<svg id="tw" xmlns="http://www.w3.org/2000/svg" viewBox="0 0 24 24"><title>twitter</title><path d="M12,0A12,12,0,1,0,24,12,12,12,0,0,0,12,0Zm0,23A11,11,0,1,1,23,12,11,11,0,0,1,12,23ZM17.67,7.3a4.77,4.77,0,0,1-1.56.6,2.46,2.46,0,0,0-4.26,1.69,2.6,2.6,0,0,0,.06.56A7,7,0,0,1,6.84,7.57,2.41,2.41,0,0,0,6.5,8.81a2.46,2.46,0,0,0,1.1,2,2.35,2.35,0,0,1-1.12-.31v0a2.47,2.47,0,0,0,2,2.42,2.83,2.83,0,0,1-.65.09A2.31,2.31,0,0,1,7.35,13a2.45,2.45,0,0,0,2.29,1.71A4.92,4.92,0,0,1,6.59,15.8a5.68,5.68,0,0,1-.59,0,7,7,0,0,0,10.78-5.9c0-.11,0-.21,0-.32A5,5,0,0,0,18,8.28a5.17,5.17,0,0,1-1.41.39A2.55,2.55,0,0,0,17.67,7.3Z"/></svg>
